inDegrees=no
num_controls=7
num_derivatives=13
num_iterations=170
num_multipliers=7
num_parameters=0
num_slacks=7
num_states=26
objective=0.516789
objective_accelerations=0.039266
objective_balance=0.002209
objective_effort=0.043555
objective_height=0.420108
objective_ligament=0.011651
solver_duration=2256.457236
status=Solve_Succeeded
success=true
DataType=double
version=3
OpenSimVersion=4.5
endheader
time	/jointset/ground_pelvis/pelvis_tilt/value	/jointset/ground_pelvis/pelvis_tx/value	/jointset/ground_pelvis/pelvis_ty/value	/jointset/hip_l/hip_flexion_l/value	/jointset/hip_l/hip_adduction_l/value	/jointset/hip_l/hip_rotation_l/value	/jointset/back/lumbar_extension/value	/jointset/patellofemoral_l/patellar_flexion_l/value	/jointset/knee_l/knee_flexion_l/value	/jointset/knee_l/knee_adduction_l/value	/jointset/knee_l/knee_rotation_l/value	/jointset/ankle_l/ankle_angle_l/value	/jointset/subtalar_l/subtalar_angle_l/value	/jointset/ground_pelvis/pelvis_tilt/speed	/jointset/ground_pelvis/pelvis_tx/speed	/jointset/ground_pelvis/pelvis_ty/speed	/jointset/hip_l/hip_flexion_l/speed	/jointset/hip_l/hip_adduction_l/speed	/jointset/hip_l/hip_rotation_l/speed	/jointset/back/lumbar_extension/speed	/jointset/patellofemoral_l/patellar_flexion_l/speed	/jointset/knee_l/knee_flexion_l/speed	/jointset/knee_l/knee_adduction_l/speed	/jointset/knee_l/knee_rotation_l/speed	/jointset/ankle_l/ankle_angle_l/speed	/jointset/subtalar_l/subtalar_angle_l/speed	/forceset/tau_hip_flexion_l	/forceset/tau_hip_adduction_l	/forceset/tau_hip_rotation_l	/forceset/tau_knee_flexion_l	/forceset/tau_ankle_angle_l	/forceset/tau_subtalar_angle_l	/forceset/tau_lumbar_extension	lambda_cid13_p0	lambda_cid13_p1	lambda_cid13_p2	lambda_cid13_p3	lambda_cid13_p4	lambda_cid13_p5	lambda_cid14_p0	/jointset/ground_pelvis/pelvis_tilt/accel	/jointset/ground_pelvis/pelvis_tx/accel	/jointset/ground_pelvis/pelvis_ty/accel	/jointset/hip_l/hip_flexion_l/accel	/jointset/hip_l/hip_adduction_l/accel	/jointset/hip_l/hip_rotation_l/accel	/jointset/back/lumbar_extension/accel	/jointset/patellofemoral_l/patellar_flexion_l/accel	/jointset/knee_l/knee_flexion_l/accel	/jointset/knee_l/knee_adduction_l/accel	/jointset/knee_l/knee_rotation_l/accel	/jointset/ankle_l/ankle_angle_l/accel	/jointset/subtalar_l/subtalar_angle_l/accel	gamma_cid13_p0	gamma_cid13_p1	gamma_cid13_p2	gamma_cid13_p3	gamma_cid13_p4	gamma_cid13_p5	gamma_cid14_p0
1	-0.1576232038484486	-0.08976566404178679	0.728807754131608	1.249005589324613	-0.3280974708195947	-0.004485197875592838	-0.959930671086776	1.157360148046822	1.15736014804676	-0.0804428864906159	-0.1745310805920305	0.1444186201664772	0.01233497708151694	0.1070235246126971	0.02674941045956629	0.06593480708450167	-0.2904493473659724	0.0005708161366018966	-0.06262717004708512	-0.001609838731770315	-0.1602876870025152	-0.1602876870025237	0.001463978640443718	-2.223278063363651e-05	0.01521723111577956	0.007168098736412341	-0.3976419844891156	0.01309048420918149	-0.005009307121749454	-0.2917322210034972	0.09906072354561912	0.0471216766574719	0.4347504089665188	-18.07694628162814	-17.50243273576911	2.567512320486326	5.682026781116897	-785.4116961068644	-74.48845550201476	-1.85900249475713	1.040179256583526	0.1765212107534281	1.237248296586291	-4.608370229841861	-0.01211894906476859	-1.401090646068945	0.2969719804349058	-4.107136634944989	-4.107136634944868	-0.2033851623926421	-0.01067360097466664	-0.8091745886114684	-0.2870779786442944	-8.507175179781242e-09	-9.286086747500763e-09	3.518379885888105e-08	2.765334500889346e-09	-2.087073234268261e-08	5.051630203033885e-08	-1.023592081519741e-08
1.01	-0.1565014679706852	-0.0894892976829018	0.729528741750387	1.245871676025008	-0.3280917574261325	-0.005181678490331788	-0.9599310690768462	1.155552309184083	1.155552309184102	-0.08043726273327213	-0.1745311871677235	0.144530459694734	0.01239305561831688	0.1173178867090149	0.028530642909688	0.07825151931149563	-0.336313001258082	0.0005785158349799949	-0.07666241320472331	0.001561291460844231	-0.2012717182869657	-0.2012717182869607	-0.0003397617170056587	3.075744372840243e-07	0.007145748997978151	0.004453213558515942	-0.3968941901532678	0.01325149286544886	-0.005042659657501881	-0.2914816286763783	0.09892420962479398	0.04721191988777377	0.4344577682190958	-18.09038392872614	-17.54931876548688	2.586462434343458	5.548519531665558	-785.0841815698556	-74.56583883371719	-1.897586865371055	1.023198601426115	0.179943104189437	1.22719779244048	-4.572318374971005	0.008211231852076784	-1.403772538029921	0.3318411502532877	-4.092778566829246	-4.092778566827116	-0.1689560608658146	0.008637823409794809	-0.8068750002682885	-0.2628559044120048	-1.383235249349637e-08	-1.687463069385223e-08	4.833317377174911e-08	7.963505547844531e-09	-2.639098156933278e-08	5.682457263707143e-08	-1.356443895753309e-08
1.02	-0.1552769616889049	-0.08919491523110602	0.7303725595127727	1.242279735105266	-0.3280857676751739	-0.006018317814131342	-0.9598988242426828	1.153334881570172	1.153334881570274	-0.08044969389719174	-0.1745310843459351	0.1445614364064321	0.01242415287992791	0.1275776054161412	0.03035262904172778	0.09050083580586818	-0.3820548713932118	0.0006260876358774224	-0.09065891185910831	0.004918726116601	-0.2422054372367836	-0.2422054372367586	-0.002147005612244431	1.964671598109858e-05	-0.0009553321959758849	0.001771843698631745	-0.3961463958174224	0.01341250152171544	-0.005076012193250328	-0.2912310363492597	0.09878769570396888	0.04730216311807469	0.4341651274716705	-18.11464852292435	-17.59383911173994	2.604498606331547	5.453350943477441	-784.9014134868544	-74.63465776546204	-1.945447851032734	1.03325057874521	0.1846719471370446	1.223769150062006	-4.584013478445909	-0.004144528560903482	-1.393341745418302	0.3342328730633464	-4.097074168018485	-4.097074168017055	-0.204085869950522	-0.01131384368008892	-0.8150944038419903	-0.2803749150418536	-1.871358554941712e-08	-2.566337958151774e-08	6.009890053329265e-08	1.202450896856341e-08	-3.184341071843467e-08	6.220294251876176e-08	-1.684575993313563e-08
1.03	-0.1539503829434342	-0.08888188687234189	0.7313385204984132	1.238231136907534	-0.328079091093593	-0.006994652596687988	-0.9598303848713668	1.150708451899814	1.150708451899892	-0.08048025740996061	-0.1745307858962178	0.14451155563361	0.01242872876898217	0.1376978674016343	0.03228235661527981	0.1026790987711883	-0.4276309506279366	0.0007158639630426062	-0.1045979552508554	0.008968782222301337	-0.2830644397377802	-0.2830644397377059	-0.00396918399212801	3.782560551366891e-05	-0.008995630477311081	-0.000839942552561741	-0.3967116139917267	0.01369730829520676	-0.005117263789751732	-0.2905548356143747	0.09868483818542333	0.04754988249190559	0.4354546840392738	-18.15615593886713	-17.7133865456725	2.645523642740119	4.939256037907194	-785.5399311503839	-74.76258345686287	-2.002882260514377	0.9953708008307272	0.2015234874236417	1.213007995040134	-4.539335291322088	0.01653174466283193	-1.392690795297611	0.4703370906520783	-4.077900681373198	-4.077900681366653	-0.1718183230330383	0.008067843172711144	-0.7947212540383046	-0.2490746710922353	-2.359028856189098e-08	-3.446437545838033e-08	7.185050843614919e-08	1.607390863799417e-08	-3.729514782592892e-08	6.757182361754349e-08	-2.0126599304996e-08
1.04	-0.1525238102196328	-0.08854868117285034	0.7324258947387616	1.233727791888387	-0.3280713181424789	-0.008110078845011588	-0.9597154559167275	1.147673914726399	1.147673914726454	-0.08052914960673342	-0.1745303688400248	0.1443820271352229	0.01240768795733765	0.1475764010823019	0.03438809718720751	0.114783486747432	-0.4730042356761147	0.0008453615425121131	-0.1184772050123905	0.01421664278114966	-0.323826937848095	-0.3238269378479769	-0.005812742413042318	4.336801115738492e-05	-0.01688487730900718	-0.003351496441120912	-0.3972768321660342	0.01398211506869704	-0.005158515386249079	-0.2898786348794899	0.09858198066687793	0.0477976018657353	0.4367442406068744	-18.20863647731512	-17.83061796904651	2.685728638876888	4.461847374485314	-786.3266424140934	-74.88265140010618	-2.070222515214416	0.9849049177800719	0.2198745468121821	1.208994152246729	-4.543454641136591	0.003799721899958463	-1.381383019375901	0.5737937636929384	-4.077773289882098	-4.077773289881784	-0.2083618781566694	-0.01384114045786483	-0.7848841139141682	-0.260328442514992	-2.584510960297623e-08	-4.281111772383928e-08	8.100565541541182e-08	1.570776434012198e-08	-4.029539764432778e-08	6.895458131846082e-08	-2.265112211992828e-08
1.05	-0.1509996965639412	-0.0881935910133153	0.7336338491008436	1.228772004235095	-0.3280620438138839	-0.009363899046731478	-0.9595424146234959	1.144232348194679	1.144232348194717	-0.08059664864766543	-0.1745299624819914	0.144174233399176	0.01236199556117406	0.1572001593732158	0.03665392102227669	0.1267853513533691	-0.518088864100989	0.001019441229549884	-0.1322705866974881	0.02055870209149961	-0.3644585950445685	-0.3644585950444514	-0.007689782551785242	3.745702250057138e-05	-0.02466089852260972	-0.005770819714633677	-0.3970249726546001	0.01423228082755253	-0.005208198685337322	-0.2891242490392184	0.09857405903221479	0.04805513321086483	0.4372491769696139	-18.18690004787051	-17.96681779801337	2.73091344418662	4.014856125479131	-786.369645873518	-75.03639562747489	-2.147870540851819	0.944183395159079	0.233537282869343	1.192468794091111	-4.481305698876803	0.02569921190999643	-1.375901738174147	0.6894749486462166	-4.05169086115831	-4.051690861158671	-0.1777971202936169	0.005987556495928532	-0.7720184879331303	-0.2303119602324953	-2.80179968324556e-08	-5.114366456394187e-08	9.007966299081215e-08	1.520363429327159e-08	-4.321903848494242e-08	7.02127726631949e-08	-2.515201004245657e-08
1.06	-0.1493807309032579	-0.08781512241922652	0.7349611593448497	1.223367302546411	-0.3280507312644578	-0.01075517026432238	-0.9593009401503727	1.140385299305668	1.140385299305691	-0.08068300249769682	-0.1745296245069305	0.1438890679784232	0.01229259439418271	0.1665468020806106	0.03906378409794857	0.1386546631322623	-0.5627870427544223	0.001253005708760279	-0.1459674081864843	0.02790327875945736	-0.4049234093061756	-0.4049234093060615	-0.00958370423294891	2.969141646441368e-05	-0.03235921425020563	-0.008093250606669574	-0.3967731131431701	0.01448244658640685	-0.005257881984420484	-0.2883698631989471	0.09856613739755196	0.04831266455599306	0.4377541133323498	-18.176093864266	-18.10083861598478	2.775447960646416	3.602177679417905	-786.5615841749845	-75.18386465192236	-2.236237754908966	0.9294818010762433	0.2486823949327271	1.182483586837954	-4.466164686848424	0.01569668033448106	-1.362070980155629	0.7742972352144968	-4.04440470290882	-4.044404702908894	-0.2117381866408202	-0.01421206393373806	-0.7693430167128382	-0.2409499662196196	-3.069157412468638e-08	-5.966171026257106e-08	9.611413208971774e-08	1.627048146761583e-08	-4.732994861714556e-08	7.057950495055738e-08	-2.718395210523328e-08
1.07	-0.1476694377947507	-0.08741181391864697	0.7364064939209091	1.217517316874131	-0.3280367834374061	-0.01228285003670277	-0.9589813051091588	1.136134475111378	1.136134475111395	-0.08078845460999384	-0.1745293708986959	0.1435273358197294	0.01220046618584459	0.175688920135959	0.04162404217834419	0.150389484352242	-0.6071677057280349	0.001548901184708605	-0.159549958138696	0.03616297866400175	-0.4452099850420253	-0.4452099850419575	-0.01150915605790314	2.17654198552047e-05	-0.03997097467975397	-0.01031217562964098	-0.396258008315706	0.01477244562860044	-0.0053143647632866	-0.2874263407168866	0.09856246295092197	0.04860677762058484	0.4380276369144364	-18.14092524006016	-18.25841329979836	2.827622034715512	3.142747927085173	-786.4279072375945	-75.3567304272343	-2.335805219497082	0.9031393318360349	0.2636199391062281	1.165555870646026	-4.417663061124575	0.03838379826418273	-1.353586215510223	0.8726937451671932	-4.016061465880565	-4.016061465887475	-0.1833320516096822	0.006050620449512067	-0.7546601441365487	-0.209332198336634	-3.339178386706351e-08	-6.818962292176016e-08	1.019869236100864e-07	1.742089126010873e-08	-5.150401137124171e-08	7.089881920295327e-08	-2.91909502392998e-08
